<svg xmlns="http://www.w3.org/2000/svg" width="400" height="400" viewBox="0 0 400 400">
  <defs>
    <radialGradient id="bgGrad" cx="50%" cy="50%" r="50%">
      <stop offset="0%" stop-color="#0b0f14"/>
      <stop offset="100%" stop-color="#151c25"/>
    </radialGradient>
    <radialGradient id="globeGrad" cx="35%" cy="35%" r="65%">
      <stop offset="0%" stop-color="#0b0f14" stop-opacity="0.55"/>
      <stop offset="100%" stop-color="#151c25" stop-opacity="0.92"/>
    </radialGradient>
    <filter id="glow" x="-20%" y="-20%" width="140%" height="140%">
      <feGaussianBlur stdDeviation="4" result="blur"/>
      <feMerge>
        <feMergeNode in="blur"/>
        <feMergeNode in="SourceGraphic"/>
      </feMerge>
    </filter>
    <clipPath id="globeClip">
      <circle cx="200" cy="200" r="100"/>
    </clipPath>
  </defs>

  <!-- Background -->
  <rect width="400" height="400" fill="url(#bgGrad)" rx="12"/>

  <!-- Rotating globe group -->
  <g id="globe-group">
    <!-- Globe fill -->
    <circle cx="200" cy="200" r="100" fill="url(#globeGrad)"
            stroke="#2b303a" stroke-width="1.5" filter="url(#glow)"/>

    <!-- Grid lines clipped to sphere -->
    <g clip-path="url(#globeClip)">
      <path d="M 200.00,100.00 L 204.53,97.52 L 209.05,95.32 L 213.55,93.41 L 218.01,91.79 L 222.41,90.47 L 226.76,89.44 L 231.04,88.72 L 235.22,88.31 L 239.32,88.20 L 243.30,88.40 L 247.17,88.90 L 250.90,89.71 L 254.50,90.82 L 257.95,92.23 L 261.24,93.93 L 264.36,95.93 L 267.30,98.21 L 270.06,100.77 L 272.63,103.60 L 275.00,106.70 L 277.16,110.05 L 279.12,113.65 L 280.85,117.48 L 282.36,121.55 L 283.65,125.82 L 284.71,130.30 L 285.54,134.97 L 286.13,139.82 L 286.48,144.83 L 286.60,150.00 L 286.48,155.30 L 286.13,160.73 L 285.54,166.26 L 284.71,171.88 L 283.65,177.59 L 282.36,183.35 L 280.85,189.16 L 279.12,195.00 L 277.16,200.85 L 275.00,206.70 L 272.63,212.53 L 270.06,218.33 L 267.30,224.07 L 264.36,229.76 L 261.24,235.36 L 257.95,240.86 L 254.50,246.25 L 250.90,251.51 L 247.17,256.64 L 243.30,261.60 L 239.32,266.40 L 235.22,271.02 L 231.04,275.44 L 226.76,279.65 L 222.41,283.65 L 218.01,287.42 L 213.55,290.95 L 209.05,294.23 L 204.53,297.25 L 200.00,300.00" fill="none" stroke="#2b303a" stroke-width="0.8" opacity="0.55"/>
      <path d="M 200.00,100.00 L 201.66,96.56 L 203.31,93.41 L 204.96,90.55 L 206.59,87.98 L 208.20,85.73 L 209.80,83.79 L 211.36,82.16 L 212.89,80.86 L 214.39,79.89 L 215.85,79.25 L 217.26,78.93 L 218.63,78.95 L 219.95,79.30 L 221.21,79.98 L 222.41,80.99 L 223.56,82.33 L 224.63,83.99 L 225.64,85.96 L 226.58,88.25 L 227.45,90.85 L 228.24,93.74 L 228.96,96.93 L 229.59,100.40 L 230.15,104.14 L 230.62,108.14 L 231.01,112.40 L 231.31,116.90 L 231.53,121.62 L 231.66,126.56 L 231.70,131.70 L 231.66,137.03 L 231.53,142.53 L 231.31,148.18 L 231.01,153.98 L 230.62,159.91 L 230.15,165.94 L 229.59,172.07 L 228.96,178.28 L 228.24,184.54 L 227.45,190.85 L 226.58,197.18 L 225.64,203.52 L 224.63,209.85 L 223.56,216.16 L 222.41,222.41 L 221.21,228.61 L 219.95,234.73 L 218.63,240.76 L 217.26,246.67 L 215.85,252.45 L 214.39,258.09 L 212.89,263.57 L 211.36,268.88 L 209.80,274.00 L 208.20,278.91 L 206.59,283.61 L 204.96,288.08 L 203.31,292.31 L 201.66,296.29 L 200.00,300.00" fill="none" stroke="#2b303a" stroke-width="0.8" opacity="0.55"/>
      <path d="M 200.00,100.00 L 198.34,96.56 L 196.69,93.41 L 195.04,90.55 L 193.41,87.98 L 191.80,85.73 L 190.20,83.79 L 188.64,82.16 L 187.11,80.86 L 185.61,79.89 L 184.15,79.25 L 182.74,78.93 L 181.37,78.95 L 180.05,79.30 L 178.79,79.98 L 177.59,80.99 L 176.44,82.33 L 175.37,83.99 L 174.36,85.96 L 173.42,88.25 L 172.55,90.85 L 171.76,93.74 L 171.04,96.93 L 170.41,100.40 L 169.85,104.14 L 169.38,108.14 L 168.99,112.40 L 168.69,116.90 L 168.47,121.62 L 168.34,126.56 L 168.30,131.70 L 168.34,137.03 L 168.47,142.53 L 168.69,148.18 L 168.99,153.98 L 169.38,159.91 L 169.85,165.94 L 170.41,172.07 L 171.04,178.28 L 171.76,184.54 L 172.55,190.85 L 173.42,197.18 L 174.36,203.52 L 175.37,209.85 L 176.44,216.16 L 177.59,222.41 L 178.79,228.61 L 180.05,234.73 L 181.37,240.76 L 182.74,246.67 L 184.15,252.45 L 185.61,258.09 L 187.11,263.57 L 188.64,268.88 L 190.20,274.00 L 191.80,278.91 L 193.41,283.61 L 195.04,288.08 L 196.69,292.31 L 198.34,296.29 L 200.00,300.00" fill="none" stroke="#2b303a" stroke-width="0.8" opacity="0.55"/>
      <path d="M 200.00,100.00 L 195.47,97.52 L 190.95,95.32 L 186.45,93.41 L 181.99,91.79 L 177.59,90.47 L 173.24,89.44 L 168.96,88.72 L 164.78,88.31 L 160.68,88.20 L 156.70,88.40 L 152.83,88.90 L 149.10,89.71 L 145.50,90.82 L 142.05,92.23 L 138.76,93.93 L 135.64,95.93 L 132.70,98.21 L 129.94,100.77 L 127.37,103.60 L 125.00,106.70 L 122.84,110.05 L 120.88,113.65 L 119.15,117.48 L 117.64,121.55 L 116.35,125.82 L 115.29,130.30 L 114.46,134.97 L 113.87,139.82 L 113.52,144.83 L 113.40,150.00 L 113.52,155.30 L 113.87,160.73 L 114.46,166.26 L 115.29,171.88 L 116.35,177.59 L 117.64,183.35 L 119.15,189.16 L 120.88,195.00 L 122.84,200.85 L 125.00,206.70 L 127.37,212.53 L 129.94,218.33 L 132.70,224.07 L 135.64,229.76 L 138.76,235.36 L 142.05,240.86 L 145.50,246.25 L 149.10,251.51 L 152.83,256.64 L 156.70,261.60 L 160.68,266.40 L 164.78,271.02 L 168.96,275.44 L 173.24,279.65 L 177.59,283.65 L 181.99,287.42 L 186.45,290.95 L 190.95,294.23 L 195.47,297.25 L 200.00,300.00" fill="none" stroke="#2b303a" stroke-width="0.8" opacity="0.55"/>
      <path d="M 200.00,100.00 L 193.81,99.18 L 187.63,98.63 L 181.49,98.37 L 175.40,98.38 L 169.38,98.67 L 163.44,99.24 L 157.60,100.08 L 151.88,101.20 L 146.29,102.59 L 140.85,104.25 L 135.57,106.17 L 130.46,108.34 L 125.55,110.77 L 120.84,113.44 L 116.35,116.35 L 112.09,119.49 L 108.06,122.85 L 104.29,126.42 L 100.78,130.19 L 97.55,134.15 L 94.59,138.29 L 91.93,142.61 L 89.56,147.08 L 87.49,151.69 L 85.73,156.44 L 84.28,161.31 L 83.16,166.28 L 82.35,171.35 L 81.86,176.49 L 81.70,181.70 L 81.86,186.96 L 82.35,192.25 L 83.16,197.57 L 84.28,202.89 L 85.73,208.20 L 87.49,213.50 L 89.56,218.75 L 91.93,223.95 L 94.59,229.09 L 97.55,234.15 L 100.78,239.12 L 104.29,243.97 L 108.06,248.71 L 112.09,253.31 L 116.35,257.77 L 120.84,262.07 L 125.55,266.20 L 130.46,270.14 L 135.57,273.90 L 140.85,277.45 L 146.29,280.79 L 151.88,283.91 L 157.60,286.80 L 163.44,289.45 L 169.38,291.86 L 175.40,294.01 L 181.49,295.91 L 187.63,297.54 L 193.81,298.91 L 200.00,300.00" fill="none" stroke="#2b303a" stroke-width="0.8" opacity="0.55"/>
      <path d="M 200.00,100.00 L 193.81,101.09 L 187.63,102.46 L 181.49,104.09 L 175.40,105.99 L 169.38,108.14 L 163.44,110.55 L 157.60,113.20 L 151.88,116.09 L 146.29,119.21 L 140.85,122.55 L 135.57,126.10 L 130.46,129.86 L 125.55,133.80 L 120.84,137.93 L 116.35,142.23 L 112.09,146.69 L 108.06,151.29 L 104.29,156.03 L 100.78,160.88 L 97.55,165.85 L 94.59,170.91 L 91.93,176.05 L 89.56,181.25 L 87.49,186.50 L 85.73,191.80 L 84.28,197.11 L 83.16,202.43 L 82.35,207.75 L 81.86,213.04 L 81.70,218.30 L 81.86,223.51 L 82.35,228.65 L 83.16,233.72 L 84.28,238.69 L 85.73,243.56 L 87.49,248.31 L 89.56,252.92 L 91.93,257.39 L 94.59,261.71 L 97.55,265.85 L 100.78,269.81 L 104.29,273.58 L 108.06,277.15 L 112.09,280.51 L 116.35,283.65 L 120.84,286.56 L 125.55,289.23 L 130.46,291.66 L 135.57,293.83 L 140.85,295.75 L 146.29,297.41 L 151.88,298.80 L 157.60,299.92 L 163.44,300.76 L 169.38,301.33 L 175.40,301.62 L 181.49,301.63 L 187.63,301.37 L 193.81,300.82 L 200.00,300.00" fill="none" stroke="#2b303a" stroke-width="0.8" opacity="0.55"/>
      <path d="M 200.00,100.00 L 195.47,102.75 L 190.95,105.77 L 186.45,109.05 L 181.99,112.58 L 177.59,116.35 L 173.24,120.35 L 168.96,124.56 L 164.78,128.98 L 160.68,133.60 L 156.70,138.40 L 152.83,143.36 L 149.10,148.49 L 145.50,153.75 L 142.05,159.14 L 138.76,164.64 L 135.64,170.24 L 132.70,175.93 L 129.94,181.67 L 127.37,187.47 L 125.00,193.30 L 122.84,199.15 L 120.88,205.00 L 119.15,210.84 L 117.64,216.65 L 116.35,222.41 L 115.29,228.12 L 114.46,233.74 L 113.87,239.27 L 113.52,244.70 L 113.40,250.00 L 113.52,255.17 L 113.87,260.18 L 114.46,265.03 L 115.29,269.70 L 116.35,274.18 L 117.64,278.45 L 119.15,282.52 L 120.88,286.35 L 122.84,289.95 L 125.00,293.30 L 127.37,296.40 L 129.94,299.23 L 132.70,301.79 L 135.64,304.07 L 138.76,306.07 L 142.05,307.77 L 145.50,309.18 L 149.10,310.29 L 152.83,311.10 L 156.70,311.60 L 160.68,311.80 L 164.78,311.69 L 168.96,311.28 L 173.24,310.56 L 177.59,309.53 L 181.99,308.21 L 186.45,306.59 L 190.95,304.68 L 195.47,302.48 L 200.00,300.00" fill="none" stroke="#2b303a" stroke-width="0.8" opacity="0.55"/>
      <path d="M 200.00,100.00 L 198.34,103.71 L 196.69,107.69 L 195.04,111.92 L 193.41,116.39 L 191.80,121.09 L 190.20,126.00 L 188.64,131.12 L 187.11,136.43 L 185.61,141.91 L 184.15,147.55 L 182.74,153.33 L 181.37,159.24 L 180.05,165.27 L 178.79,171.39 L 177.59,177.59 L 176.44,183.84 L 175.37,190.15 L 174.36,196.48 L 173.42,202.82 L 172.55,209.15 L 171.76,215.46 L 171.04,221.72 L 170.41,227.93 L 169.85,234.06 L 169.38,240.09 L 168.99,246.02 L 168.69,251.82 L 168.47,257.47 L 168.34,262.97 L 168.30,268.30 L 168.34,273.44 L 168.47,278.38 L 168.69,283.10 L 168.99,287.60 L 169.38,291.86 L 169.85,295.86 L 170.41,299.60 L 171.04,303.07 L 171.76,306.26 L 172.55,309.15 L 173.42,311.75 L 174.36,314.04 L 175.37,316.01 L 176.44,317.67 L 177.59,319.01 L 178.79,320.02 L 180.05,320.70 L 181.37,321.05 L 182.74,321.07 L 184.15,320.75 L 185.61,320.11 L 187.11,319.14 L 188.64,317.84 L 190.20,316.21 L 191.80,314.27 L 193.41,312.02 L 195.04,309.45 L 196.69,306.59 L 198.34,303.44 L 200.00,300.00" fill="none" stroke="#2b303a" stroke-width="0.8" opacity="0.55"/>
      <path d="M 200.00,100.00 L 201.66,103.71 L 203.31,107.69 L 204.96,111.92 L 206.59,116.39 L 208.20,121.09 L 209.80,126.00 L 211.36,131.12 L 212.89,136.43 L 214.39,141.91 L 215.85,147.55 L 217.26,153.33 L 218.63,159.24 L 219.95,165.27 L 221.21,171.39 L 222.41,177.59 L 223.56,183.84 L 224.63,190.15 L 225.64,196.48 L 226.58,202.82 L 227.45,209.15 L 228.24,215.46 L 228.96,221.72 L 229.59,227.93 L 230.15,234.06 L 230.62,240.09 L 231.01,246.02 L 231.31,251.82 L 231.53,257.47 L 231.66,262.97 L 231.70,268.30 L 231.66,273.44 L 231.53,278.38 L 231.31,283.10 L 231.01,287.60 L 230.62,291.86 L 230.15,295.86 L 229.59,299.60 L 228.96,303.07 L 228.24,306.26 L 227.45,309.15 L 226.58,311.75 L 225.64,314.04 L 224.63,316.01 L 223.56,317.67 L 222.41,319.01 L 221.21,320.02 L 219.95,320.70 L 218.63,321.05 L 217.26,321.07 L 215.85,320.75 L 214.39,320.11 L 212.89,319.14 L 211.36,317.84 L 209.80,316.21 L 208.20,314.27 L 206.59,312.02 L 204.96,309.45 L 203.31,306.59 L 201.66,303.44 L 200.00,300.00" fill="none" stroke="#2b303a" stroke-width="0.8" opacity="0.55"/>
      <path d="M 200.00,100.00 L 204.53,102.75 L 209.05,105.77 L 213.55,109.05 L 218.01,112.58 L 222.41,116.35 L 226.76,120.35 L 231.04,124.56 L 235.22,128.98 L 239.32,133.60 L 243.30,138.40 L 247.17,143.36 L 250.90,148.49 L 254.50,153.75 L 257.95,159.14 L 261.24,164.64 L 264.36,170.24 L 267.30,175.93 L 270.06,181.67 L 272.63,187.47 L 275.00,193.30 L 277.16,199.15 L 279.12,205.00 L 280.85,210.84 L 282.36,216.65 L 283.65,222.41 L 284.71,228.12 L 285.54,233.74 L 286.13,239.27 L 286.48,244.70 L 286.60,250.00 L 286.48,255.17 L 286.13,260.18 L 285.54,265.03 L 284.71,269.70 L 283.65,274.18 L 282.36,278.45 L 280.85,282.52 L 279.12,286.35 L 277.16,289.95 L 275.00,293.30 L 272.63,296.40 L 270.06,299.23 L 267.30,301.79 L 264.36,304.07 L 261.24,306.07 L 257.95,307.77 L 254.50,309.18 L 250.90,310.29 L 247.17,311.10 L 243.30,311.60 L 239.32,311.80 L 235.22,311.69 L 231.04,311.28 L 226.76,310.56 L 222.41,309.53 L 218.01,308.21 L 213.55,306.59 L 209.05,304.68 L 204.53,302.48 L 200.00,300.00" fill="none" stroke="#2b303a" stroke-width="0.8" opacity="0.55"/>
      <path d="M 200.00,100.00 L 206.19,101.09 L 212.37,102.46 L 218.51,104.09 L 224.60,105.99 L 230.62,108.14 L 236.56,110.55 L 242.40,113.20 L 248.12,116.09 L 253.71,119.21 L 259.15,122.55 L 264.43,126.10 L 269.54,129.86 L 274.45,133.80 L 279.16,137.93 L 283.65,142.23 L 287.91,146.69 L 291.94,151.29 L 295.71,156.03 L 299.22,160.88 L 302.45,165.85 L 305.41,170.91 L 308.07,176.05 L 310.44,181.25 L 312.51,186.50 L 314.27,191.80 L 315.72,197.11 L 316.84,202.43 L 317.65,207.75 L 318.14,213.04 L 318.30,218.30 L 318.14,223.51 L 317.65,228.65 L 316.84,233.72 L 315.72,238.69 L 314.27,243.56 L 312.51,248.31 L 310.44,252.92 L 308.07,257.39 L 305.41,261.71 L 302.45,265.85 L 299.22,269.81 L 295.71,273.58 L 291.94,277.15 L 287.91,280.51 L 283.65,283.65 L 279.16,286.56 L 274.45,289.23 L 269.54,291.66 L 264.43,293.83 L 259.15,295.75 L 253.71,297.41 L 248.12,298.80 L 242.40,299.92 L 236.56,300.76 L 230.62,301.33 L 224.60,301.62 L 218.51,301.63 L 212.37,301.37 L 206.19,300.82 L 200.00,300.00" fill="none" stroke="#2b303a" stroke-width="0.8" opacity="0.55"/>
      <path d="M 200.00,100.00 L 206.19,99.18 L 212.37,98.63 L 218.51,98.37 L 224.60,98.38 L 230.62,98.67 L 236.56,99.24 L 242.40,100.08 L 248.12,101.20 L 253.71,102.59 L 259.15,104.25 L 264.43,106.17 L 269.54,108.34 L 274.45,110.77 L 279.16,113.44 L 283.65,116.35 L 287.91,119.49 L 291.94,122.85 L 295.71,126.42 L 299.22,130.19 L 302.45,134.15 L 305.41,138.29 L 308.07,142.61 L 310.44,147.08 L 312.51,151.69 L 314.27,156.44 L 315.72,161.31 L 316.84,166.28 L 317.65,171.35 L 318.14,176.49 L 318.30,181.70 L 318.14,186.96 L 317.65,192.25 L 316.84,197.57 L 315.72,202.89 L 314.27,208.20 L 312.51,213.50 L 310.44,218.75 L 308.07,223.95 L 305.41,229.09 L 302.45,234.15 L 299.22,239.12 L 295.71,243.97 L 291.94,248.71 L 287.91,253.31 L 283.65,257.77 L 279.16,262.07 L 274.45,266.20 L 269.54,270.14 L 264.43,273.90 L 259.15,277.45 L 253.71,280.79 L 248.12,283.91 L 242.40,286.80 L 236.56,289.45 L 230.62,291.86 L 224.60,294.01 L 218.51,295.91 L 212.37,297.54 L 206.19,298.91 L 200.00,300.00" fill="none" stroke="#2b303a" stroke-width="0.8" opacity="0.55"/>
      <path d="M 229.62,88.93 L 226.93,87.50 L 224.03,86.22 L 220.94,85.09 L 217.70,84.11 L 214.33,83.30 L 210.84,82.67 L 207.27,82.21 L 203.65,81.94 L 200.00,81.85 L 196.35,81.94 L 192.73,82.21 L 189.16,82.67 L 185.67,83.30 L 182.30,84.11 L 179.06,85.09 L 175.97,86.22 L 173.07,87.50 L 170.38,88.93 L 167.91,90.49 L 165.69,92.16 L 163.72,93.94 L 162.04,95.81 L 160.64,97.76 L 159.54,99.77 L 158.75,101.83 L 158.27,103.92 L 158.11,106.03 L 158.27,108.14 L 158.75,110.23 L 159.54,112.29 L 160.64,114.30 L 162.04,116.25 L 163.72,118.12 L 165.69,119.90 L 167.91,121.58 L 170.38,123.13 L 173.07,124.56 L 175.97,125.84 L 179.06,126.98 L 182.30,127.95 L 185.67,128.76 L 189.16,129.39 L 192.73,129.85 L 196.35,130.12 L 200.00,130.22 L 203.65,130.12 L 207.27,129.85 L 210.84,129.39 L 214.33,128.76 L 217.70,127.95 L 220.94,126.98 L 224.03,125.84 L 226.93,124.56 L 229.62,123.13 L 232.09,121.58 L 234.31,119.90 L 236.28,118.12 L 237.96,116.25 L 239.36,114.30 L 240.46,112.29 L 241.25,110.23 L 241.73,108.14 L 241.89,106.03 L 241.73,103.92 L 241.25,101.83 L 240.46,99.77 L 239.36,97.76 L 237.96,95.81 L 236.28,93.94 L 234.31,92.16 L 232.09,90.49 L 229.62,88.93" fill="none" stroke="#2b303a" stroke-width="0.8" opacity="0.55"/>
      <path d="M 255.67,91.26 L 250.60,88.58 L 245.15,86.16 L 239.36,84.03 L 233.27,82.20 L 226.93,80.68 L 220.38,79.49 L 213.67,78.63 L 206.86,78.12 L 200.00,77.94 L 193.14,78.12 L 186.33,78.63 L 179.62,79.49 L 173.07,80.68 L 166.73,82.20 L 160.64,84.03 L 154.85,86.16 L 149.40,88.58 L 144.33,91.26 L 139.69,94.18 L 135.51,97.33 L 131.82,100.67 L 128.65,104.19 L 126.02,107.85 L 123.96,111.63 L 122.47,115.50 L 121.57,119.43 L 121.27,123.40 L 121.57,127.36 L 122.47,131.29 L 123.96,135.16 L 126.02,138.94 L 128.65,142.60 L 131.82,146.12 L 135.51,149.47 L 139.69,152.61 L 144.33,155.53 L 149.40,158.21 L 154.85,160.63 L 160.64,162.76 L 166.73,164.59 L 173.07,166.11 L 179.62,167.30 L 186.33,168.16 L 193.14,168.67 L 200.00,168.85 L 206.86,168.67 L 213.67,168.16 L 220.38,167.30 L 226.93,166.11 L 233.27,164.59 L 239.36,162.76 L 245.15,160.63 L 250.60,158.21 L 255.67,155.53 L 260.31,152.61 L 264.49,149.47 L 268.18,146.12 L 271.35,142.60 L 273.98,138.94 L 276.04,135.16 L 277.53,131.29 L 278.43,127.36 L 278.73,123.40 L 278.43,119.43 L 277.53,115.50 L 276.04,111.63 L 273.98,107.85 L 271.35,104.19 L 268.18,100.67 L 264.49,97.33 L 260.31,94.18 L 255.67,91.26" fill="none" stroke="#2b303a" stroke-width="0.8" opacity="0.55"/>
      <path d="M 275.00,106.70 L 268.18,103.09 L 260.84,99.84 L 253.03,96.97 L 244.83,94.50 L 236.28,92.46 L 227.45,90.85 L 218.42,89.69 L 209.24,89.00 L 200.00,88.76 L 190.76,89.00 L 181.58,89.69 L 172.55,90.85 L 163.72,92.46 L 155.17,94.50 L 146.97,96.97 L 139.16,99.84 L 131.82,103.09 L 125.00,106.70 L 118.75,110.64 L 113.12,114.88 L 108.14,119.38 L 103.87,124.12 L 100.33,129.06 L 97.55,134.15 L 95.55,139.37 L 94.34,144.66 L 93.93,150.00 L 94.34,155.34 L 95.55,160.63 L 97.55,165.85 L 100.33,170.94 L 103.87,175.88 L 108.14,180.62 L 113.12,185.12 L 118.75,189.36 L 125.00,193.30 L 131.82,196.91 L 139.16,200.16 L 146.97,203.03 L 155.17,205.50 L 163.72,207.54 L 172.55,209.15 L 181.58,210.31 L 190.76,211.00 L 200.00,211.24 L 209.24,211.00 L 218.42,210.31 L 227.45,209.15 L 236.28,207.54 L 244.83,205.50 L 253.03,203.03 L 260.84,200.16 L 268.18,196.91 L 275.00,193.30 L 281.25,189.36 L 286.88,185.12 L 291.86,180.62 L 296.13,175.88 L 299.67,170.94 L 302.45,165.85 L 304.45,160.63 L 305.66,155.34 L 306.07,150.00 L 305.66,144.66 L 304.45,139.37 L 302.45,134.15 L 299.67,129.06 L 296.13,124.12 L 291.86,119.38 L 286.88,114.88 L 281.25,110.64 L 275.00,106.70" fill="none" stroke="#2b303a" stroke-width="0.8" opacity="0.55"/>
      <path d="M 285.29,133.39 L 277.53,129.29 L 269.18,125.59 L 260.31,122.33 L 250.97,119.52 L 241.25,117.20 L 231.22,115.37 L 220.94,114.06 L 210.51,113.26 L 200.00,113.00 L 189.49,113.26 L 179.06,114.06 L 168.78,115.37 L 158.75,117.20 L 149.03,119.52 L 139.69,122.33 L 130.82,125.59 L 122.47,129.29 L 114.71,133.39 L 107.60,137.87 L 101.20,142.69 L 95.55,147.82 L 90.69,153.21 L 86.66,158.82 L 83.50,164.61 L 81.22,170.54 L 79.85,176.57 L 79.39,182.64 L 79.85,188.70 L 81.22,194.73 L 83.50,200.66 L 86.66,206.45 L 90.69,212.06 L 95.55,217.45 L 101.20,222.58 L 107.60,227.40 L 114.71,231.88 L 122.47,235.98 L 130.82,239.68 L 139.69,242.94 L 149.03,245.75 L 158.75,248.07 L 168.78,249.90 L 179.06,251.21 L 189.49,252.01 L 200.00,252.27 L 210.51,252.01 L 220.94,251.21 L 231.22,249.90 L 241.25,248.07 L 250.97,245.75 L 260.31,242.94 L 269.18,239.68 L 277.53,235.98 L 285.29,231.88 L 292.40,227.40 L 298.80,222.58 L 304.45,217.45 L 309.31,212.06 L 313.34,206.45 L 316.50,200.66 L 318.78,194.73 L 320.15,188.70 L 320.61,182.64 L 320.15,176.57 L 318.78,170.54 L 316.50,164.61 L 313.34,158.82 L 309.31,153.21 L 304.45,147.82 L 298.80,142.69 L 292.40,137.87 L 285.29,133.39" fill="none" stroke="#2b303a" stroke-width="0.8" opacity="0.55"/>
      <path d="M 285.29,168.12 L 277.53,164.02 L 269.18,160.32 L 260.31,157.06 L 250.97,154.25 L 241.25,151.93 L 231.22,150.10 L 220.94,148.79 L 210.51,147.99 L 200.00,147.73 L 189.49,147.99 L 179.06,148.79 L 168.78,150.10 L 158.75,151.93 L 149.03,154.25 L 139.69,157.06 L 130.82,160.32 L 122.47,164.02 L 114.71,168.12 L 107.60,172.60 L 101.20,177.42 L 95.55,182.55 L 90.69,187.94 L 86.66,193.55 L 83.50,199.34 L 81.22,205.27 L 79.85,211.30 L 79.39,217.36 L 79.85,223.43 L 81.22,229.46 L 83.50,235.39 L 86.66,241.18 L 90.69,246.79 L 95.55,252.18 L 101.20,257.31 L 107.60,262.13 L 114.71,266.61 L 122.47,270.71 L 130.82,274.41 L 139.69,277.67 L 149.03,280.48 L 158.75,282.80 L 168.78,284.63 L 179.06,285.94 L 189.49,286.74 L 200.00,287.00 L 210.51,286.74 L 220.94,285.94 L 231.22,284.63 L 241.25,282.80 L 250.97,280.48 L 260.31,277.67 L 269.18,274.41 L 277.53,270.71 L 285.29,266.61 L 292.40,262.13 L 298.80,257.31 L 304.45,252.18 L 309.31,246.79 L 313.34,241.18 L 316.50,235.39 L 318.78,229.46 L 320.15,223.43 L 320.61,217.36 L 320.15,211.30 L 318.78,205.27 L 316.50,199.34 L 313.34,193.55 L 309.31,187.94 L 304.45,182.55 L 298.80,177.42 L 292.40,172.60 L 285.29,168.12" fill="none" stroke="#2b303a" stroke-width="0.8" opacity="0.55"/>
      <path d="M 275.00,206.70 L 268.18,203.09 L 260.84,199.84 L 253.03,196.97 L 244.83,194.50 L 236.28,192.46 L 227.45,190.85 L 218.42,189.69 L 209.24,189.00 L 200.00,188.76 L 190.76,189.00 L 181.58,189.69 L 172.55,190.85 L 163.72,192.46 L 155.17,194.50 L 146.97,196.97 L 139.16,199.84 L 131.82,203.09 L 125.00,206.70 L 118.75,210.64 L 113.12,214.88 L 108.14,219.38 L 103.87,224.12 L 100.33,229.06 L 97.55,234.15 L 95.55,239.37 L 94.34,244.66 L 93.93,250.00 L 94.34,255.34 L 95.55,260.63 L 97.55,265.85 L 100.33,270.94 L 103.87,275.88 L 108.14,280.62 L 113.12,285.12 L 118.75,289.36 L 125.00,293.30 L 131.82,296.91 L 139.16,300.16 L 146.97,303.03 L 155.17,305.50 L 163.72,307.54 L 172.55,309.15 L 181.58,310.31 L 190.76,311.00 L 200.00,311.24 L 209.24,311.00 L 218.42,310.31 L 227.45,309.15 L 236.28,307.54 L 244.83,305.50 L 253.03,303.03 L 260.84,300.16 L 268.18,296.91 L 275.00,293.30 L 281.25,289.36 L 286.88,285.12 L 291.86,280.62 L 296.13,275.88 L 299.67,270.94 L 302.45,265.85 L 304.45,260.63 L 305.66,255.34 L 306.07,250.00 L 305.66,244.66 L 304.45,239.37 L 302.45,234.15 L 299.67,229.06 L 296.13,224.12 L 291.86,219.38 L 286.88,214.88 L 281.25,210.64 L 275.00,206.70" fill="none" stroke="#2b303a" stroke-width="0.8" opacity="0.55"/>
      <path d="M 255.67,244.47 L 250.60,241.79 L 245.15,239.37 L 239.36,237.24 L 233.27,235.41 L 226.93,233.89 L 220.38,232.70 L 213.67,231.84 L 206.86,231.33 L 200.00,231.15 L 193.14,231.33 L 186.33,231.84 L 179.62,232.70 L 173.07,233.89 L 166.73,235.41 L 160.64,237.24 L 154.85,239.37 L 149.40,241.79 L 144.33,244.47 L 139.69,247.39 L 135.51,250.53 L 131.82,253.88 L 128.65,257.40 L 126.02,261.06 L 123.96,264.84 L 122.47,268.71 L 121.57,272.64 L 121.27,276.60 L 121.57,280.57 L 122.47,284.50 L 123.96,288.37 L 126.02,292.15 L 128.65,295.81 L 131.82,299.33 L 135.51,302.67 L 139.69,305.82 L 144.33,308.74 L 149.40,311.42 L 154.85,313.84 L 160.64,315.97 L 166.73,317.80 L 173.07,319.32 L 179.62,320.51 L 186.33,321.37 L 193.14,321.88 L 200.00,322.06 L 206.86,321.88 L 213.67,321.37 L 220.38,320.51 L 226.93,319.32 L 233.27,317.80 L 239.36,315.97 L 245.15,313.84 L 250.60,311.42 L 255.67,308.74 L 260.31,305.82 L 264.49,302.67 L 268.18,299.33 L 271.35,295.81 L 273.98,292.15 L 276.04,288.37 L 277.53,284.50 L 278.43,280.57 L 278.73,276.60 L 278.43,272.64 L 277.53,268.71 L 276.04,264.84 L 273.98,261.06 L 271.35,257.40 L 268.18,253.88 L 264.49,250.53 L 260.31,247.39 L 255.67,244.47" fill="none" stroke="#2b303a" stroke-width="0.8" opacity="0.55"/>
      <path d="M 229.62,276.87 L 226.93,275.44 L 224.03,274.16 L 220.94,273.02 L 217.70,272.05 L 214.33,271.24 L 210.84,270.61 L 207.27,270.15 L 203.65,269.88 L 200.00,269.78 L 196.35,269.88 L 192.73,270.15 L 189.16,270.61 L 185.67,271.24 L 182.30,272.05 L 179.06,273.02 L 175.97,274.16 L 173.07,275.44 L 170.38,276.87 L 167.91,278.42 L 165.69,280.10 L 163.72,281.88 L 162.04,283.75 L 160.64,285.70 L 159.54,287.71 L 158.75,289.77 L 158.27,291.86 L 158.11,293.97 L 158.27,296.08 L 158.75,298.17 L 159.54,300.23 L 160.64,302.24 L 162.04,304.19 L 163.72,306.06 L 165.69,307.84 L 167.91,309.51 L 170.38,311.07 L 173.07,312.50 L 175.97,313.78 L 179.06,314.91 L 182.30,315.89 L 185.67,316.70 L 189.16,317.33 L 192.73,317.79 L 196.35,318.06 L 200.00,318.15 L 203.65,318.06 L 207.27,317.79 L 210.84,317.33 L 214.33,316.70 L 217.70,315.89 L 220.94,314.91 L 224.03,313.78 L 226.93,312.50 L 229.62,311.07 L 232.09,309.51 L 234.31,307.84 L 236.28,306.06 L 237.96,304.19 L 239.36,302.24 L 240.46,300.23 L 241.25,298.17 L 241.73,296.08 L 241.89,293.97 L 241.73,291.86 L 241.25,289.77 L 240.46,287.71 L 239.36,285.70 L 237.96,283.75 L 236.28,281.88 L 234.31,280.10 L 232.09,278.42 L 229.62,276.87" fill="none" stroke="#2b303a" stroke-width="0.8" opacity="0.55"/>
      <circle cx="135.95" cy="109.93" r="4" fill="#b6a891" stroke="#eceff4" stroke-width="1" opacity="0.9"/>
      <circle cx="221.09" cy="193.29" r="4" fill="#b6a891" stroke="#eceff4" stroke-width="1" opacity="0.9"/>
      <circle cx="254.02" cy="90.68" r="4" fill="#b6a891" stroke="#eceff4" stroke-width="1" opacity="0.9"/>
    </g>

    <!-- Accent ring -->
    <circle cx="200" cy="200" r="100" fill="none"
            stroke="#b6a891" stroke-width="1.5" opacity="0.25"/>

    <!-- Animated Y-axis rotation (visual sweep via transform rotate) -->
    <animateTransform attributeName="transform" attributeType="XML"
      type="rotate"
      from="0 200 200"
      to="360 200 200"
      dur="30s"
      repeatCount="indefinite"/>
  </g>

  <!-- Label -->
  <text x="200" y="384" text-anchor="middle"
        font-family="Consolas, monospace" font-size="11"
        fill="#eceff4" opacity="0.55">GodProfile Globe</text>
</svg>