<svg xmlns="http://www.w3.org/2000/svg" width="140" height="45" viewBox="0 0 140 45">
  <defs>
    <linearGradient id="grad" x1="0%" y1="0%" x2="100%" y2="100%">
      <stop offset="0%" style="stop-color:#161b22;stop-opacity:1" />
      <stop offset="100%" style="stop-color:#0d1117;stop-opacity:1" />
    </linearGradient>
    <filter id="glow">
      <feGaussianBlur stdDeviation="1.5" result="coloredBlur"/>
      <feMerge>
        <feMergeNode in="coloredBlur"/>
        <feMergeNode in="SourceGraphic"/>
      </feMerge>
    </filter>
    <style>
      .text { font-family: 'Segoe UI', sans-serif; font-size: 13px; font-weight: 600; fill: #FFB11A; letter-spacing: 1.5px; text-transform: uppercase; }
      .icon { fill: #FFB11A; }
    </style>
  </defs>

  <rect x="1" y="1" width="138" height="43" rx="21.5" fill="url(#grad)" stroke="#FFB11A" stroke-width="1.5" stroke-opacity="0.6" filter="url(#glow)"/>

  <!-- Icon: LinkedIn -->
  <path class="icon" transform="translate(18, 11) scale(1.0)" d="M19 0h-14c-2.761 0-5 2.239-5 5v14c0 2.761 2.239 5 5 5h14c2.762 0 5-2.239 5-5v-14c0-2.761-2.238-5-5-5zm-11 19h-3v-11h3v11zm-1.5-12.268c-.966 0-1.75-.79-1.75-1.764s.784-1.764 1.75-1.764 1.75.79 1.75 1.764-.783 1.764-1.75 1.764zm13.5 12.268h-3v-5.604c0-3.368-4-3.113-4 0v5.604h-3v-11h3v1.765c1.396-2.586 7-2.777 7 2.476v6.759z"/>

  <text x="82" y="28" text-anchor="middle" class="text">LINKEDIN</text>
</svg>
