<svg viewBox="0 0 800 150" width="800" height="150" xmlns="http://www.w3.org/2000/svg">
  <defs>
    <linearGradient id="serenityBg" x1="0%" y1="0%" x2="100%" y2="100%">
      <stop offset="0%" stop-color="#0b0f14" />
      <stop offset="100%" stop-color="#151c25" />
    </linearGradient>
    <pattern id="serenityGrid" width="14" height="14" patternUnits="userSpaceOnUse">
      <path d="M14 0 H0 V14" fill="none" stroke="#1b222c" stroke-width="0.6" />
    </pattern>
  </defs>

  <rect width="800" height="150" rx="12" fill="url(#serenityBg)" />
  <rect width="800" height="150" rx="12" fill="url(#serenityGrid)" opacity="0.2" />
  <rect x="1" y="1" width="798" height="148" rx="12" fill="none" stroke="#2b303a" stroke-width="1" />

  <g transform="translate(56,40)">
    <circle cx="0" cy="0" r="16" fill="none" stroke="#b6a891" stroke-width="1.3" />
    <circle cx="0" cy="0" r="12" fill="none" stroke="#8f98a8" stroke-width="1" />
    <line x1="0" y1="-12" x2="0" y2="12" stroke="#8f98a8" stroke-width="1.2" />
    <line x1="-12" y1="0" x2="12" y2="0" stroke="#8f98a8" stroke-width="1.2" />
  </g>

  <text x="110" y="32" font-family="Segoe UI, Arial, sans-serif" font-size="16" font-weight="600" fill="#eceff4">Serenity-Multi-Modal-Mental-Assistant-System</text>
  <text x="110" y="52" font-family="Consolas, monospace" font-size="10" fill="#8f98a8" letter-spacing="1.2">CAPSTONE · MULTI-MODAL MENTAL HEALTH</text>

  <g>
    <rect x="110" y="70" width="60" height="18" rx="4" fill="#161d27" stroke="#2f3642" stroke-width="0.7" />
    <text x="122" y="82" font-family="Consolas, monospace" font-size="9" fill="#a8b1bf">Python</text>
    <rect x="176" y="70" width="58" height="18" rx="4" fill="#161d27" stroke="#2f3642" stroke-width="0.7" />
    <text x="186" y="82" font-family="Consolas, monospace" font-size="9" fill="#a8b1bf">PyTorch</text>
    <rect x="240" y="70" width="54" height="18" rx="4" fill="#161d27" stroke="#2f3642" stroke-width="0.7" />
    <text x="250" y="82" font-family="Consolas, monospace" font-size="9" fill="#a8b1bf">Docker</text>
  </g>

  <!-- Stats Add-on -->
  <g transform="translate(110, 115)">
    <path d="M8 1.5L9.6 6.3H14.8L10.6 9.3L12.2 14.1L8 11.1L3.8 14.1L5.4 9.3L1.2 6.3H6.4L8 1.5Z" fill="none" stroke="#b6a891" stroke-width="1.2"/>
    <text x="20" y="10" font-family="Segoe UI, Arial, sans-serif" font-size="12" fill="#eceff4" font-weight="600"><!-- STARS_COUNT_SERENITY -->3<!-- /STARS_COUNT_SERENITY --></text>
    <g transform="translate(70, 0)">
      <path d="M4 2v6c0 1.1.9 2 2 2h4c1.1 0 2-.9 2-2V2M8 10v4M2 4l2-2 2 2M10 4l2-2 2 2M6 14l2 2 2-2" fill="none" stroke="#8f98a8" stroke-width="1.2"/>
      <text x="20" y="10" font-family="Segoe UI, Arial, sans-serif" font-size="12" fill="#eceff4" font-weight="600"><!-- FORKS_COUNT_SERENITY -->0<!-- /FORKS_COUNT_SERENITY --></text>
    </g>
  </g>

  <g transform="translate(610,0)">
    <text x="0" y="32" font-family="Segoe UI, Arial, sans-serif" font-size="12" font-weight="600" fill="#eceff4">Local LLM</text>
    <text x="0" y="50" font-family="Segoe UI, Arial, sans-serif" font-size="10" fill="#9aa4b4">Ollama Integration</text>
    <line x1="0" y1="60" x2="150" y2="60" stroke="#2b303a" stroke-width="0.7" />
    <text x="0" y="76" font-family="Segoe UI, Arial, sans-serif" font-size="9" fill="#b6a891">- Capstone Scope</text>
    <text x="0" y="92" font-family="Segoe UI, Arial, sans-serif" font-size="9" fill="#8f98a8">- Production-Ready Architecture</text>
  </g>
</svg>