<svg xmlns="http://www.w3.org/2000/svg" viewBox="0 0 800 200" role="img" aria-label="Samarth pinned project card">
  <defs>
    <linearGradient id="samarthBgGrad" x1="0%" y1="0%" x2="100%" y2="100%">
      <stop offset="0%" stop-color="#151922" stop-opacity="1" />
      <stop offset="100%" stop-color="#0f131a" stop-opacity="1" />
    </linearGradient>
  </defs>

  <rect width="800" height="200" fill="url(#samarthBgGrad)" />
  <rect x="1" y="1" width="798" height="198" rx="8" fill="none" stroke="#2b303a" stroke-width="1" />

  <g transform="translate(60,50)">
    <path d="M -12 8 Q -12 -8 0 -12 Q 12 -8 12 8 L 12 10 Q 0 15 -12 10 Z" fill="none" stroke="#b6a891" stroke-width="1.4" stroke-linejoin="round" />
    <path d="M -8 4 L 0 0 L 8 4" fill="none" stroke="#8f98a8" stroke-width="1" stroke-linecap="round" />
  </g>

  <text x="120" y="48" font-family="Segoe UI, Arial, sans-serif" font-size="18" font-weight="600" fill="#eceff4">Samarth</text>
  <text x="120" y="75" font-family="Segoe UI, Arial, sans-serif" font-size="13" fill="#9aa4b4">Agricultural Knowledge and Data API</text>

  <g>
    <rect x="120" y="100" width="70" height="22" rx="4" fill="#1c2230" stroke="#2f3642" stroke-width="0.7" />
    <text x="130" y="115" font-family="Consolas, monospace" font-size="11" fill="#a8b1bf">FastAPI</text>

    <rect x="200" y="100" width="75" height="22" rx="4" fill="#1c2230" stroke="#2f3642" stroke-width="0.7" />
    <text x="210" y="115" font-family="Consolas, monospace" font-size="11" fill="#a8b1bf">PostgreSQL</text>

    <rect x="285" y="100" width="62" height="22" rx="4" fill="#1c2230" stroke="#2f3642" stroke-width="0.7" />
    <text x="294" y="115" font-family="Consolas, monospace" font-size="11" fill="#a8b1bf">data.gov</text>
  </g>

  <g>
    <text x="620" y="48" font-family="Segoe UI, Arial, sans-serif" font-size="14" font-weight="600" fill="#eceff4">Production API</text>
    <text x="620" y="70" font-family="Segoe UI, Arial, sans-serif" font-size="12" fill="#9aa4b4">Live Data Integration</text>

    <line x1="620" y1="85" x2="760" y2="85" stroke="#2b303a" stroke-width="0.7" />

    <text x="620" y="105" font-family="Segoe UI, Arial, sans-serif" font-size="11" fill="#b6a891">- Real-time Q and A</text>
    <text x="620" y="125" font-family="Segoe UI, Arial, sans-serif" font-size="11" fill="#8f98a8">- Government Data</text>
  </g>
</svg>