<svg xmlns="http://www.w3.org/2000/svg" viewBox="0 0 800 150" role="img" aria-label="Samarth pinned project card">
  <defs>
    <linearGradient id="samarthBg" x1="0%" y1="0%" x2="100%" y2="100%">
      <stop offset="0%" stop-color="#0b0f14" />
      <stop offset="100%" stop-color="#151c25" />
    </linearGradient>
    <pattern id="samarthGrid" width="14" height="14" patternUnits="userSpaceOnUse">
      <path d="M14 0 H0 V14" fill="none" stroke="#1b222c" stroke-width="0.6" />
    </pattern>
  </defs>

  <rect width="800" height="150" fill="url(#samarthBg)" />
  <rect width="800" height="150" fill="url(#samarthGrid)" opacity="0.2" />
  <rect x="1" y="1" width="798" height="148" rx="8" fill="none" stroke="#2b303a" stroke-width="1" />

  <g transform="translate(56,40)">
    <path d="M -12 8 Q -12 -8 0 -12 Q 12 -8 12 8 L 12 10 Q 0 15 -12 10 Z" fill="none" stroke="#b6a891" stroke-width="1.2" stroke-linejoin="round" />
    <path d="M -8 4 L 0 0 L 8 4" fill="none" stroke="#8f98a8" stroke-width="1" stroke-linecap="round" />
  </g>

  <text x="110" y="36" font-family="Segoe UI, Arial, sans-serif" font-size="16" font-weight="600" fill="#eceff4">Samarth</text>
  <text x="110" y="56" font-family="Consolas, monospace" font-size="10" fill="#8f98a8" letter-spacing="1.2">AGRI DATA · LIVE INTELLIGENCE</text>

  <g>
    <rect x="110" y="74" width="58" height="18" rx="4" fill="#161d27" stroke="#2f3642" stroke-width="0.7" />
    <text x="121" y="86" font-family="Consolas, monospace" font-size="9" fill="#a8b1bf">FastAPI</text>
    <rect x="172" y="74" width="66" height="18" rx="4" fill="#161d27" stroke="#2f3642" stroke-width="0.7" />
    <text x="181" y="86" font-family="Consolas, monospace" font-size="9" fill="#a8b1bf">PostgreSQL</text>
    <rect x="244" y="74" width="54" height="18" rx="4" fill="#161d27" stroke="#2f3642" stroke-width="0.7" />
    <text x="254" y="86" font-family="Consolas, monospace" font-size="9" fill="#a8b1bf">data.gov</text>
  </g>

  <g>
    <text x="610" y="36" font-family="Segoe UI, Arial, sans-serif" font-size="12" font-weight="600" fill="#eceff4">Production API</text>
    <text x="610" y="54" font-family="Segoe UI, Arial, sans-serif" font-size="10" fill="#9aa4b4">Live Data Integration</text>
    <line x1="610" y1="64" x2="760" y2="64" stroke="#2b303a" stroke-width="0.7" />
    <text x="610" y="80" font-family="Segoe UI, Arial, sans-serif" font-size="9" fill="#b6a891">- Real-time Q and A</text>
    <text x="610" y="96" font-family="Segoe UI, Arial, sans-serif" font-size="9" fill="#8f98a8">- Government Data</text>
  </g>
</svg>