<svg viewBox="0 0 800 150" xmlns="http://www.w3.org/2000/svg">
  <defs>
    <linearGradient id="notesBg" x1="0%" y1="0%" x2="100%" y2="100%">
      <stop offset="0%" stop-color="#0b0f14" />
      <stop offset="100%" stop-color="#151c25" />
    </linearGradient>
    <pattern id="notesGrid" width="14" height="14" patternUnits="userSpaceOnUse">
      <path d="M14 0 H0 V14" fill="none" stroke="#1b222c" stroke-width="0.6" />
    </pattern>
  </defs>

  <rect width="800" height="150" fill="url(#notesBg)" />
  <rect width="800" height="150" fill="url(#notesGrid)" opacity="0.2" />
  <rect x="1" y="1" width="798" height="148" rx="8" fill="none" stroke="#2b303a" stroke-width="1" />

  <g transform="translate(56,40)">
    <rect x="-12" y="-12" width="24" height="24" fill="none" stroke="#b6a891" stroke-width="1.2" rx="2" />
    <rect x="-7" y="-7" width="14" height="14" fill="none" stroke="#8f98a8" stroke-width="1" rx="1" />
  </g>

  <text x="110" y="36" font-family="Segoe UI, Arial, sans-serif" font-size="16" font-weight="600" fill="#eceff4">Smart Notes</text>
  <text x="110" y="56" font-family="Consolas, monospace" font-size="10" fill="#8f98a8" letter-spacing="1.2">INTELLIGENT FULL-STACK NOTES</text>

  <g>
    <rect x="110" y="74" width="70" height="18" rx="4" fill="#161d27" stroke="#2f3642" stroke-width="0.7" />
    <text x="118" y="86" font-family="Consolas, monospace" font-size="9" fill="#a8b1bf">TypeScript</text>
    <rect x="186" y="74" width="52" height="18" rx="4" fill="#161d27" stroke="#2f3642" stroke-width="0.7" />
    <text x="197" y="86" font-family="Consolas, monospace" font-size="9" fill="#a8b1bf">React</text>
    <rect x="244" y="74" width="60" height="18" rx="4" fill="#161d27" stroke="#2f3642" stroke-width="0.7" />
    <text x="252" y="86" font-family="Consolas, monospace" font-size="9" fill="#a8b1bf">Firebase</text>
  </g>

  <g>
    <text x="610" y="36" font-family="Segoe UI, Arial, sans-serif" font-size="12" font-weight="600" fill="#eceff4">AI-Powered</text>
    <text x="610" y="54" font-family="Segoe UI, Arial, sans-serif" font-size="10" fill="#9aa4b4">Smart Organization</text>
    <line x1="610" y1="64" x2="760" y2="64" stroke="#2b303a" stroke-width="0.7" />
    <text x="610" y="80" font-family="Segoe UI, Arial, sans-serif" font-size="9" fill="#b6a891">- Rich Editor</text>
    <text x="610" y="96" font-family="Segoe UI, Arial, sans-serif" font-size="9" fill="#8f98a8">- Cloud Sync</text>
  </g>
</svg>