<svg xmlns="http://www.w3.org/2000/svg" width="140" height="45" viewBox="0 0 140 45">
  <defs>
    <linearGradient id="grad" x1="0%" y1="0%" x2="100%" y2="100%">
      <stop offset="0%" style="stop-color:#161b22;stop-opacity:1" />
      <stop offset="100%" style="stop-color:#0d1117;stop-opacity:1" />
    </linearGradient>
    <filter id="glow">
      <feGaussianBlur stdDeviation="1.5" result="coloredBlur"/>
      <feMerge>
        <feMergeNode in="coloredBlur"/>
        <feMergeNode in="SourceGraphic"/>
      </feMerge>
    </filter>
    <style>
      .text { font-family: 'Segoe UI', sans-serif; font-size: 13px; font-weight: 600; fill: #FFB11A; letter-spacing: 1.5px; text-transform: uppercase; }
      .icon { fill: #FFB11A; }
    </style>
  </defs>
  
  <!-- Background with subtle gradient & border -->
  <rect x="1" y="1" width="138" height="43" rx="21.5" fill="url(#grad)" stroke="#FFB11A" stroke-width="1.5" stroke-opacity="0.6" filter="url(#glow)"/>
  
  <!-- Icon: Globe -->
  <path class="icon" transform="translate(18, 12) scale(0.9)" d="M12 2C6.48 2 2 6.48 2 12s4.48 10 10 10 10-4.48 10-10S17.52 2 12 2zm-1 17.93c-3.95-.49-7-3.85-7-7.93 0-.62.08-1.21.21-1.79L9 15v1c0 1.1.9 2 2 2v1.93zm6.9-2.54c-.26-.81-1-1.39-1.9-1.39h-1v-3c0-.55-.45-1-1-1H8v-2h2c.55 0 1-.45 1-1V7h2c1.1 0 2-.9 2-2v-.41c2.93 1.19 5 4.06 5 7.41 0 2.08-.8 3.97-2.1 5.39z"/>

  <!-- Text -->
  <text x="82" y="28" text-anchor="middle" class="text">PORTFOLIO</text>
</svg>
