<svg xmlns="http://www.w3.org/2000/svg" width="300" height="80" viewBox="0 0 300 80">
  <defs>
    <style>
      .sig-path {
        fill: none;
        stroke: #FFB11A;
        stroke-width: 1.5;
        stroke-linecap: round;
        stroke-linejoin: round;
        opacity: 0.9;
      }
      .sub {
        font-family: "Courier New", monospace;
        font-size: 8px;
        fill: #3d4450;
        text-anchor: middle;
        letter-spacing: 3px;
        text-transform: uppercase;
      }
    </style>
  </defs>

  <g transform="translate(50, 8)">
    <!-- N -->
    <path d="M0 48 L0 18 L18 48 L18 18" class="sig-path"/>
    <!-- i -->
    <path d="M26 28 L26 48" class="sig-path"/>
    <circle cx="26" cy="22" r="1.2" fill="#FFB11A" opacity="0.9"/>
    <!-- p -->
    <path d="M34 28 L34 60 M34 33 Q47 30 47 40 Q47 50 34 50" class="sig-path"/>
    <!-- u -->
    <path d="M55 28 L55 44 Q60 52 66 44 L66 28" class="sig-path"/>
    <!-- n -->
    <path d="M74 28 L74 50 M74 34 Q87 28 88 50" class="sig-path"/>

    <!-- space then S -->
    <path d="M106 24 Q95 24 98 35 Q102 46 94 50" class="sig-path"/>
    <!-- u -->
    <path d="M112 28 L112 44 Q117 52 123 44 L123 28" class="sig-path"/>
    <!-- j -->
    <path d="M131 28 L131 58 Q126 64 121 60" class="sig-path"/>
    <circle cx="131" cy="22" r="1.2" fill="#FFB11A" opacity="0.9"/>
    <!-- e -->
    <path d="M140 40 Q140 28 150 28 Q158 28 158 40 Q158 52 148 52" class="sig-path"/>
    <path d="M140 40 L158 40" class="sig-path"/>
    <!-- s -->
    <path d="M172 32 Q162 32 165 40 Q168 48 160 52" class="sig-path"/>
    <!-- h -->
    <path d="M178 18 L178 50 M178 34 Q191 28 192 50" class="sig-path"/>
  </g>

  <text x="150" y="76" class="sub">Nipun Sujesh</text>
</svg>