<svg xmlns="http://www.w3.org/2000/svg" width="300" height="80" viewBox="0 0 300 80">
  <defs>
    <style>
      .sig-path { fill: none; stroke: #C6A875; stroke-width: 2; stroke-linecap: round; stroke-linejoin: round; }
      .sub { font-family: -apple-system, BlinkMacSystemFont, "Segoe UI", sans-serif; font-size: 9px; fill: #8b949e; text-anchor: middle; letter-spacing: 2px; text-transform: uppercase; }
    </style>
  </defs>
  
  <g transform="translate(60, 10)">
      <!-- N -->
      <path d="M10 50 L 10 20 L 30 50 L 30 20" class="sig-path"/>
      
      <!-- i -->
      <path d="M40 30 L 40 50 M 40 22 L 40 24" class="sig-path"/>
      
      <!-- p -->
      <path d="M50 30 L 50 60 M 50 35 Q 65 35 65 42 Q 65 50 50 50" class="sig-path"/>
      
      <!-- u -->
      <path d="M75 30 L 75 45 Q 80 50 85 45 L 85 30" class="sig-path"/>
      
      <!-- n -->
      <path d="M95 30 L 95 50 M 95 35 Q 110 32 110 50" class="sig-path"/>

      <!-- S -->
      <path d="M130 50 Q 120 50 120 40 Q 120 30 140 30 Q 150 30 150 20" class="sig-path" opacity="0" /> <!-- Skip Uppercase S complex curve, simple S below -->
      <path d="M135 22 Q 120 22 125 35 Q 130 48 120 50" class="sig-path"/> <!-- Simple S shape -->

      <!-- u -->
      <path d="M140 30 L 140 45 Q 145 50 150 45 L 150 30" class="sig-path"/>

      <!-- j -->
      <path d="M160 30 L 160 60 Q 155 65 150 62 M 160 22 L 160 24" class="sig-path"/>

      <!-- e -->
      <path d="M170 40 L 180 40 Q 180 30 170 30 Q 165 30 165 40 Q 165 50 175 50" class="sig-path"/>

      <!-- s -->
      <path d="M195 35 Q 185 35 188 42 Q 192 48 185 50" class="sig-path"/>

      <!-- h -->
      <path d="M205 20 L 205 50 M 205 35 Q 220 32 220 50" class="sig-path"/>
  </g>

  <text x="150" y="75" class="sub">Designed by Nipun</text>
</svg>
