<svg xmlns="http://www.w3.org/2000/svg" width="300" height="80" viewBox="0 0 300 80">
  <defs>
    <style>
      /* Using a monoline stroke to simulate handwriting. */
      .sig-path { fill: none; stroke: #FFB11A; stroke-width: 2; stroke-linecap: round; stroke-linejoin: round; }
      .subtitle { font-family: -apple-system, BlinkMacSystemFont, "Segoe UI", sans-serif; font-size: 10px; fill: #8b949e; letter-spacing: 3px; text-transform: uppercase; text-anchor: middle; }
    </style>
  </defs>
  
  <!-- Simulated Signature for "Nipun" (Stylized) -->
  <path class="sig-path" d="M50 50 C 50 20, 40 60, 60 30 C 70 10, 80 50, 80 50 M80 50 L 90 30 L 100 50 M100 50 L 110 40 C 115 35, 120 45, 120 45 M130 50 C 130 30, 140 30, 140 50 M140 50 L 150 40 M160 45 L 180 45"/>
  
  <!-- "Sujesh" (Stylized) -->
  <path class="sig-path" d="M200 45 C 190 45, 190 55, 200 55 C 210 55, 210 45, 200 45 M220 50 L 220 40 L 230 50 M250 40 L 250 60 C 250 60, 240 65, 240 55"/>

  <text x="150" y="75" class="subtitle">Designed by Nipun Sujesh</text>
</svg>
