<svg xmlns="http://www.w3.org/2000/svg" width="800" height="260" viewBox="0 0 800 260">
  <defs>
    <linearGradient id="nbg" x1="0%" y1="0%" x2="100%" y2="100%">
      <stop offset="0%" stop-color="#0b0f14"/>
      <stop offset="100%" stop-color="#151c25"/>
    </linearGradient>
    <radialGradient id="nglow" cx="50%" cy="50%" r="50%">
      <stop offset="0%" stop-color="#b6a891" stop-opacity="0.9"/>
      <stop offset="60%" stop-color="#b6a891" stop-opacity="0.4"/>
      <stop offset="100%" stop-color="#b6a891" stop-opacity="0"/>
    </radialGradient>
    <filter id="glow" x="-50%" y="-50%" width="200%" height="200%">
      <feGaussianBlur stdDeviation="4" result="blur"/>
      <feMerge><feMergeNode in="blur"/><feMergeNode in="SourceGraphic"/></feMerge>
    </filter>
  </defs>
  <rect width="800" height="260" fill="url(#nbg)" rx="12"/>
  <path d="M160 52 C213 52,267 52,320 52" fill="none" stroke="#b6a891" stroke-width="1" opacity="0.2"/>
  <path d="M160 52 C213 52,267 104,320 104" fill="none" stroke="#b6a891" stroke-width="1" opacity="0.2"/>
  <path d="M160 52 C213 52,267 156,320 156" fill="none" stroke="#b6a891" stroke-width="1" opacity="0.2"/>
  <path d="M160 52 C213 52,267 208,320 208" fill="none" stroke="#b6a891" stroke-width="1" opacity="0.2"/>
  <path d="M160 104 C213 104,267 52,320 52" fill="none" stroke="#b6a891" stroke-width="1" opacity="0.2"/>
  <path d="M160 104 C213 104,267 104,320 104" fill="none" stroke="#b6a891" stroke-width="1" opacity="0.2"/>
  <path d="M160 104 C213 104,267 156,320 156" fill="none" stroke="#b6a891" stroke-width="1" opacity="0.2"/>
  <path d="M160 104 C213 104,267 208,320 208" fill="none" stroke="#b6a891" stroke-width="1" opacity="0.2"/>
  <path d="M160 156 C213 156,267 52,320 52" fill="none" stroke="#b6a891" stroke-width="1" opacity="0.2"/>
  <path d="M160 156 C213 156,267 104,320 104" fill="none" stroke="#b6a891" stroke-width="1" opacity="0.2"/>
  <path d="M160 156 C213 156,267 156,320 156" fill="none" stroke="#b6a891" stroke-width="1" opacity="0.2"/>
  <path d="M160 156 C213 156,267 208,320 208" fill="none" stroke="#b6a891" stroke-width="1" opacity="0.2"/>
  <path d="M160 208 C213 208,267 52,320 52" fill="none" stroke="#b6a891" stroke-width="1" opacity="0.2"/>
  <path d="M160 208 C213 208,267 104,320 104" fill="none" stroke="#b6a891" stroke-width="1" opacity="0.2"/>
  <path d="M160 208 C213 208,267 156,320 156" fill="none" stroke="#b6a891" stroke-width="1" opacity="0.2"/>
  <path d="M160 208 C213 208,267 208,320 208" fill="none" stroke="#b6a891" stroke-width="1" opacity="0.2"/>
  <path d="M320 52 C373 52,427 52,480 52" fill="none" stroke="#b6a891" stroke-width="1" opacity="0.2"/>
  <path d="M320 52 C373 52,427 104,480 104" fill="none" stroke="#b6a891" stroke-width="1" opacity="0.2"/>
  <path d="M320 52 C373 52,427 156,480 156" fill="none" stroke="#b6a891" stroke-width="1" opacity="0.2"/>
  <path d="M320 52 C373 52,427 208,480 208" fill="none" stroke="#b6a891" stroke-width="1" opacity="0.2"/>
  <path d="M320 104 C373 104,427 52,480 52" fill="none" stroke="#b6a891" stroke-width="1" opacity="0.2"/>
  <path d="M320 104 C373 104,427 104,480 104" fill="none" stroke="#b6a891" stroke-width="1" opacity="0.2"/>
  <path d="M320 104 C373 104,427 156,480 156" fill="none" stroke="#b6a891" stroke-width="1" opacity="0.2"/>
  <path d="M320 104 C373 104,427 208,480 208" fill="none" stroke="#b6a891" stroke-width="1" opacity="0.2"/>
  <path d="M320 156 C373 156,427 52,480 52" fill="none" stroke="#b6a891" stroke-width="1" opacity="0.2"/>
  <path d="M320 156 C373 156,427 104,480 104" fill="none" stroke="#b6a891" stroke-width="1" opacity="0.2"/>
  <path d="M320 156 C373 156,427 156,480 156" fill="none" stroke="#b6a891" stroke-width="1" opacity="0.2"/>
  <path d="M320 156 C373 156,427 208,480 208" fill="none" stroke="#b6a891" stroke-width="1" opacity="0.2"/>
  <path d="M320 208 C373 208,427 52,480 52" fill="none" stroke="#b6a891" stroke-width="1" opacity="0.2"/>
  <path d="M320 208 C373 208,427 104,480 104" fill="none" stroke="#b6a891" stroke-width="1" opacity="0.2"/>
  <path d="M320 208 C373 208,427 156,480 156" fill="none" stroke="#b6a891" stroke-width="1" opacity="0.2"/>
  <path d="M320 208 C373 208,427 208,480 208" fill="none" stroke="#b6a891" stroke-width="1" opacity="0.2"/>
  <path d="M480 52 C533 52,587 52,640 52" fill="none" stroke="#b6a891" stroke-width="1" opacity="0.2"/>
  <path d="M480 52 C533 52,587 104,640 104" fill="none" stroke="#b6a891" stroke-width="1" opacity="0.2"/>
  <path d="M480 52 C533 52,587 156,640 156" fill="none" stroke="#b6a891" stroke-width="1" opacity="0.2"/>
  <path d="M480 52 C533 52,587 208,640 208" fill="none" stroke="#b6a891" stroke-width="1" opacity="0.2"/>
  <path d="M480 104 C533 104,587 52,640 52" fill="none" stroke="#b6a891" stroke-width="1" opacity="0.2"/>
  <path d="M480 104 C533 104,587 104,640 104" fill="none" stroke="#b6a891" stroke-width="1" opacity="0.2"/>
  <path d="M480 104 C533 104,587 156,640 156" fill="none" stroke="#b6a891" stroke-width="1" opacity="0.2"/>
  <path d="M480 104 C533 104,587 208,640 208" fill="none" stroke="#b6a891" stroke-width="1" opacity="0.2"/>
  <path d="M480 156 C533 156,587 52,640 52" fill="none" stroke="#b6a891" stroke-width="1" opacity="0.2"/>
  <path d="M480 156 C533 156,587 104,640 104" fill="none" stroke="#b6a891" stroke-width="1" opacity="0.2"/>
  <path d="M480 156 C533 156,587 156,640 156" fill="none" stroke="#b6a891" stroke-width="1" opacity="0.2"/>
  <path d="M480 156 C533 156,587 208,640 208" fill="none" stroke="#b6a891" stroke-width="1" opacity="0.2"/>
  <path d="M480 208 C533 208,587 52,640 52" fill="none" stroke="#b6a891" stroke-width="1" opacity="0.2"/>
  <path d="M480 208 C533 208,587 104,640 104" fill="none" stroke="#b6a891" stroke-width="1" opacity="0.2"/>
  <path d="M480 208 C533 208,587 156,640 156" fill="none" stroke="#b6a891" stroke-width="1" opacity="0.2"/>
  <path d="M480 208 C533 208,587 208,640 208" fill="none" stroke="#b6a891" stroke-width="1" opacity="0.2"/>
  <circle r="2.5" fill="#b6a891" opacity="0.9" filter="url(#glow)">
    <animateMotion dur="2.5s" repeatCount="indefinite" path="M160 52 C213 52,267 52,320 52"/>
  </circle>
  <circle r="2.5" fill="#b6a891" opacity="0.9" filter="url(#glow)">
    <animateMotion dur="3.2s" repeatCount="indefinite" path="M160 52 C213 52,267 104,320 104"/>
  </circle>
  <circle r="2.5" fill="#b6a891" opacity="0.9" filter="url(#glow)">
    <animateMotion dur="3.9s" repeatCount="indefinite" path="M160 52 C213 52,267 156,320 156"/>
  </circle>
  <circle r="2.5" fill="#b6a891" opacity="0.9" filter="url(#glow)">
    <animateMotion dur="2.5s" repeatCount="indefinite" path="M160 52 C213 52,267 208,320 208"/>
  </circle>
  <circle r="2.5" fill="#b6a891" opacity="0.9" filter="url(#glow)">
    <animateMotion dur="3.2s" repeatCount="indefinite" path="M160 104 C213 104,267 52,320 52"/>
  </circle>
  <circle r="2.5" fill="#b6a891" opacity="0.9" filter="url(#glow)">
    <animateMotion dur="3.9s" repeatCount="indefinite" path="M160 104 C213 104,267 104,320 104"/>
  </circle>
  <circle r="2.5" fill="#b6a891" opacity="0.9" filter="url(#glow)">
    <animateMotion dur="2.5s" repeatCount="indefinite" path="M160 104 C213 104,267 156,320 156"/>
  </circle>
  <circle r="2.5" fill="#b6a891" opacity="0.9" filter="url(#glow)">
    <animateMotion dur="3.2s" repeatCount="indefinite" path="M160 104 C213 104,267 208,320 208"/>
  </circle>
  <circle r="2.5" fill="#b6a891" opacity="0.9" filter="url(#glow)">
    <animateMotion dur="3.9s" repeatCount="indefinite" path="M160 156 C213 156,267 52,320 52"/>
  </circle>
  <circle r="2.5" fill="#b6a891" opacity="0.9" filter="url(#glow)">
    <animateMotion dur="2.5s" repeatCount="indefinite" path="M160 156 C213 156,267 104,320 104"/>
  </circle>
  <circle r="2.5" fill="#b6a891" opacity="0.9" filter="url(#glow)">
    <animateMotion dur="3.2s" repeatCount="indefinite" path="M160 156 C213 156,267 156,320 156"/>
  </circle>
  <circle r="2.5" fill="#b6a891" opacity="0.9" filter="url(#glow)">
    <animateMotion dur="3.9s" repeatCount="indefinite" path="M160 156 C213 156,267 208,320 208"/>
  </circle>
  <circle r="2.5" fill="#b6a891" opacity="0.9" filter="url(#glow)">
    <animateMotion dur="2.5s" repeatCount="indefinite" path="M160 208 C213 208,267 52,320 52"/>
  </circle>
  <circle r="2.5" fill="#b6a891" opacity="0.9" filter="url(#glow)">
    <animateMotion dur="3.2s" repeatCount="indefinite" path="M160 208 C213 208,267 104,320 104"/>
  </circle>
  <circle r="2.5" fill="#b6a891" opacity="0.9" filter="url(#glow)">
    <animateMotion dur="3.9s" repeatCount="indefinite" path="M160 208 C213 208,267 156,320 156"/>
  </circle>
  <circle r="2.5" fill="#b6a891" opacity="0.9" filter="url(#glow)">
    <animateMotion dur="2.5s" repeatCount="indefinite" path="M160 208 C213 208,267 208,320 208"/>
  </circle>
  <circle r="2.5" fill="#b6a891" opacity="0.9" filter="url(#glow)">
    <animateMotion dur="3.2s" repeatCount="indefinite" path="M320 52 C373 52,427 52,480 52"/>
  </circle>
  <circle r="2.5" fill="#b6a891" opacity="0.9" filter="url(#glow)">
    <animateMotion dur="3.9s" repeatCount="indefinite" path="M320 52 C373 52,427 104,480 104"/>
  </circle>
  <circle r="2.5" fill="#b6a891" opacity="0.9" filter="url(#glow)">
    <animateMotion dur="2.5s" repeatCount="indefinite" path="M320 52 C373 52,427 156,480 156"/>
  </circle>
  <circle r="2.5" fill="#b6a891" opacity="0.9" filter="url(#glow)">
    <animateMotion dur="3.2s" repeatCount="indefinite" path="M320 52 C373 52,427 208,480 208"/>
  </circle>
  <circle r="2.5" fill="#b6a891" opacity="0.9" filter="url(#glow)">
    <animateMotion dur="3.9s" repeatCount="indefinite" path="M320 104 C373 104,427 52,480 52"/>
  </circle>
  <circle r="2.5" fill="#b6a891" opacity="0.9" filter="url(#glow)">
    <animateMotion dur="2.5s" repeatCount="indefinite" path="M320 104 C373 104,427 104,480 104"/>
  </circle>
  <circle r="2.5" fill="#b6a891" opacity="0.9" filter="url(#glow)">
    <animateMotion dur="3.2s" repeatCount="indefinite" path="M320 104 C373 104,427 156,480 156"/>
  </circle>
  <circle r="2.5" fill="#b6a891" opacity="0.9" filter="url(#glow)">
    <animateMotion dur="3.9s" repeatCount="indefinite" path="M320 104 C373 104,427 208,480 208"/>
  </circle>
  <circle r="2.5" fill="#b6a891" opacity="0.9" filter="url(#glow)">
    <animateMotion dur="2.5s" repeatCount="indefinite" path="M320 156 C373 156,427 52,480 52"/>
  </circle>
  <circle r="2.5" fill="#b6a891" opacity="0.9" filter="url(#glow)">
    <animateMotion dur="3.2s" repeatCount="indefinite" path="M320 156 C373 156,427 104,480 104"/>
  </circle>
  <circle r="2.5" fill="#b6a891" opacity="0.9" filter="url(#glow)">
    <animateMotion dur="3.9s" repeatCount="indefinite" path="M320 156 C373 156,427 156,480 156"/>
  </circle>
  <circle r="2.5" fill="#b6a891" opacity="0.9" filter="url(#glow)">
    <animateMotion dur="2.5s" repeatCount="indefinite" path="M320 156 C373 156,427 208,480 208"/>
  </circle>
  <circle r="2.5" fill="#b6a891" opacity="0.9" filter="url(#glow)">
    <animateMotion dur="3.2s" repeatCount="indefinite" path="M320 208 C373 208,427 52,480 52"/>
  </circle>
  <circle r="2.5" fill="#b6a891" opacity="0.9" filter="url(#glow)">
    <animateMotion dur="3.9s" repeatCount="indefinite" path="M320 208 C373 208,427 104,480 104"/>
  </circle>
  <circle r="2.5" fill="#b6a891" opacity="0.9" filter="url(#glow)">
    <animateMotion dur="2.5s" repeatCount="indefinite" path="M320 208 C373 208,427 156,480 156"/>
  </circle>
  <circle r="2.5" fill="#b6a891" opacity="0.9" filter="url(#glow)">
    <animateMotion dur="3.2s" repeatCount="indefinite" path="M320 208 C373 208,427 208,480 208"/>
  </circle>
  <circle r="2.5" fill="#b6a891" opacity="0.9" filter="url(#glow)">
    <animateMotion dur="3.9s" repeatCount="indefinite" path="M480 52 C533 52,587 52,640 52"/>
  </circle>
  <circle r="2.5" fill="#b6a891" opacity="0.9" filter="url(#glow)">
    <animateMotion dur="2.5s" repeatCount="indefinite" path="M480 52 C533 52,587 104,640 104"/>
  </circle>
  <circle r="2.5" fill="#b6a891" opacity="0.9" filter="url(#glow)">
    <animateMotion dur="3.2s" repeatCount="indefinite" path="M480 52 C533 52,587 156,640 156"/>
  </circle>
  <circle r="2.5" fill="#b6a891" opacity="0.9" filter="url(#glow)">
    <animateMotion dur="3.9s" repeatCount="indefinite" path="M480 52 C533 52,587 208,640 208"/>
  </circle>
  <circle r="2.5" fill="#b6a891" opacity="0.9" filter="url(#glow)">
    <animateMotion dur="2.5s" repeatCount="indefinite" path="M480 104 C533 104,587 52,640 52"/>
  </circle>
  <circle r="2.5" fill="#b6a891" opacity="0.9" filter="url(#glow)">
    <animateMotion dur="3.2s" repeatCount="indefinite" path="M480 104 C533 104,587 104,640 104"/>
  </circle>
  <circle r="2.5" fill="#b6a891" opacity="0.9" filter="url(#glow)">
    <animateMotion dur="3.9s" repeatCount="indefinite" path="M480 104 C533 104,587 156,640 156"/>
  </circle>
  <circle r="2.5" fill="#b6a891" opacity="0.9" filter="url(#glow)">
    <animateMotion dur="2.5s" repeatCount="indefinite" path="M480 104 C533 104,587 208,640 208"/>
  </circle>
  <circle r="2.5" fill="#b6a891" opacity="0.9" filter="url(#glow)">
    <animateMotion dur="3.2s" repeatCount="indefinite" path="M480 156 C533 156,587 52,640 52"/>
  </circle>
  <circle r="2.5" fill="#b6a891" opacity="0.9" filter="url(#glow)">
    <animateMotion dur="3.9s" repeatCount="indefinite" path="M480 156 C533 156,587 104,640 104"/>
  </circle>
  <circle r="2.5" fill="#b6a891" opacity="0.9" filter="url(#glow)">
    <animateMotion dur="2.5s" repeatCount="indefinite" path="M480 156 C533 156,587 156,640 156"/>
  </circle>
  <circle r="2.5" fill="#b6a891" opacity="0.9" filter="url(#glow)">
    <animateMotion dur="3.2s" repeatCount="indefinite" path="M480 156 C533 156,587 208,640 208"/>
  </circle>
  <circle r="2.5" fill="#b6a891" opacity="0.9" filter="url(#glow)">
    <animateMotion dur="3.9s" repeatCount="indefinite" path="M480 208 C533 208,587 52,640 52"/>
  </circle>
  <circle r="2.5" fill="#b6a891" opacity="0.9" filter="url(#glow)">
    <animateMotion dur="2.5s" repeatCount="indefinite" path="M480 208 C533 208,587 104,640 104"/>
  </circle>
  <circle r="2.5" fill="#b6a891" opacity="0.9" filter="url(#glow)">
    <animateMotion dur="3.2s" repeatCount="indefinite" path="M480 208 C533 208,587 156,640 156"/>
  </circle>
  <circle r="2.5" fill="#b6a891" opacity="0.9" filter="url(#glow)">
    <animateMotion dur="3.9s" repeatCount="indefinite" path="M480 208 C533 208,587 208,640 208"/>
  </circle>
  <text x="160" y="18" text-anchor="middle" font-family="Consolas, monospace" font-size="10" fill="#b6a891" opacity="0.7" font-weight="bold" letter-spacing="2">AI/ML</text>
  <circle cx="160" cy="52" r="22" fill="url(#nglow)" opacity="0.5"/>
  <circle cx="160" cy="52" r="14" fill="#151c25" stroke="#b6a891" stroke-width="1.5" opacity="0.9"/>
  <circle cx="160" cy="52" r="5" fill="#b6a891" filter="url(#glow)"/>
  <text x="160" y="80" text-anchor="middle" font-family="Consolas, monospace" font-size="11" fill="#eceff4" opacity="0.9">PyTorch</text>
  <circle cx="160" cy="104" r="22" fill="url(#nglow)" opacity="0.5"/>
  <circle cx="160" cy="104" r="14" fill="#151c25" stroke="#b6a891" stroke-width="1.5" opacity="0.9"/>
  <circle cx="160" cy="104" r="5" fill="#b6a891" filter="url(#glow)"/>
  <text x="160" y="132" text-anchor="middle" font-family="Consolas, monospace" font-size="11" fill="#eceff4" opacity="0.9">HuggingFace</text>
  <circle cx="160" cy="156" r="22" fill="url(#nglow)" opacity="0.5"/>
  <circle cx="160" cy="156" r="14" fill="#151c25" stroke="#b6a891" stroke-width="1.5" opacity="0.9"/>
  <circle cx="160" cy="156" r="5" fill="#b6a891" filter="url(#glow)"/>
  <text x="160" y="184" text-anchor="middle" font-family="Consolas, monospace" font-size="11" fill="#eceff4" opacity="0.9">LangChain</text>
  <circle cx="160" cy="208" r="22" fill="url(#nglow)" opacity="0.5"/>
  <circle cx="160" cy="208" r="14" fill="#151c25" stroke="#b6a891" stroke-width="1.5" opacity="0.9"/>
  <circle cx="160" cy="208" r="5" fill="#b6a891" filter="url(#glow)"/>
  <text x="160" y="236" text-anchor="middle" font-family="Consolas, monospace" font-size="11" fill="#eceff4" opacity="0.9">OpenCV</text>
  <text x="320" y="18" text-anchor="middle" font-family="Consolas, monospace" font-size="10" fill="#b6a891" opacity="0.7" font-weight="bold" letter-spacing="2">BACKEND</text>
  <circle cx="320" cy="52" r="22" fill="url(#nglow)" opacity="0.5"/>
  <circle cx="320" cy="52" r="14" fill="#151c25" stroke="#b6a891" stroke-width="1.5" opacity="0.9"/>
  <circle cx="320" cy="52" r="5" fill="#b6a891" filter="url(#glow)"/>
  <text x="320" y="80" text-anchor="middle" font-family="Consolas, monospace" font-size="11" fill="#eceff4" opacity="0.9">FastAPI</text>
  <circle cx="320" cy="104" r="22" fill="url(#nglow)" opacity="0.5"/>
  <circle cx="320" cy="104" r="14" fill="#151c25" stroke="#b6a891" stroke-width="1.5" opacity="0.9"/>
  <circle cx="320" cy="104" r="5" fill="#b6a891" filter="url(#glow)"/>
  <text x="320" y="132" text-anchor="middle" font-family="Consolas, monospace" font-size="11" fill="#eceff4" opacity="0.9">Node.js</text>
  <circle cx="320" cy="156" r="22" fill="url(#nglow)" opacity="0.5"/>
  <circle cx="320" cy="156" r="14" fill="#151c25" stroke="#b6a891" stroke-width="1.5" opacity="0.9"/>
  <circle cx="320" cy="156" r="5" fill="#b6a891" filter="url(#glow)"/>
  <text x="320" y="184" text-anchor="middle" font-family="Consolas, monospace" font-size="11" fill="#eceff4" opacity="0.9">PostgreSQL</text>
  <circle cx="320" cy="208" r="22" fill="url(#nglow)" opacity="0.5"/>
  <circle cx="320" cy="208" r="14" fill="#151c25" stroke="#b6a891" stroke-width="1.5" opacity="0.9"/>
  <circle cx="320" cy="208" r="5" fill="#b6a891" filter="url(#glow)"/>
  <text x="320" y="236" text-anchor="middle" font-family="Consolas, monospace" font-size="11" fill="#eceff4" opacity="0.9">Redis</text>
  <text x="480" y="18" text-anchor="middle" font-family="Consolas, monospace" font-size="10" fill="#b6a891" opacity="0.7" font-weight="bold" letter-spacing="2">FRONTEND</text>
  <circle cx="480" cy="52" r="22" fill="url(#nglow)" opacity="0.5"/>
  <circle cx="480" cy="52" r="14" fill="#151c25" stroke="#b6a891" stroke-width="1.5" opacity="0.9"/>
  <circle cx="480" cy="52" r="5" fill="#b6a891" filter="url(#glow)"/>
  <text x="480" y="80" text-anchor="middle" font-family="Consolas, monospace" font-size="11" fill="#eceff4" opacity="0.9">React</text>
  <circle cx="480" cy="104" r="22" fill="url(#nglow)" opacity="0.5"/>
  <circle cx="480" cy="104" r="14" fill="#151c25" stroke="#b6a891" stroke-width="1.5" opacity="0.9"/>
  <circle cx="480" cy="104" r="5" fill="#b6a891" filter="url(#glow)"/>
  <text x="480" y="132" text-anchor="middle" font-family="Consolas, monospace" font-size="11" fill="#eceff4" opacity="0.9">Next.js</text>
  <circle cx="480" cy="156" r="22" fill="url(#nglow)" opacity="0.5"/>
  <circle cx="480" cy="156" r="14" fill="#151c25" stroke="#b6a891" stroke-width="1.5" opacity="0.9"/>
  <circle cx="480" cy="156" r="5" fill="#b6a891" filter="url(#glow)"/>
  <text x="480" y="184" text-anchor="middle" font-family="Consolas, monospace" font-size="11" fill="#eceff4" opacity="0.9">TypeScript</text>
  <circle cx="480" cy="208" r="22" fill="url(#nglow)" opacity="0.5"/>
  <circle cx="480" cy="208" r="14" fill="#151c25" stroke="#b6a891" stroke-width="1.5" opacity="0.9"/>
  <circle cx="480" cy="208" r="5" fill="#b6a891" filter="url(#glow)"/>
  <text x="480" y="236" text-anchor="middle" font-family="Consolas, monospace" font-size="11" fill="#eceff4" opacity="0.9">TailwindCSS</text>
  <text x="640" y="18" text-anchor="middle" font-family="Consolas, monospace" font-size="10" fill="#b6a891" opacity="0.7" font-weight="bold" letter-spacing="2">INFRA</text>
  <circle cx="640" cy="52" r="22" fill="url(#nglow)" opacity="0.5"/>
  <circle cx="640" cy="52" r="14" fill="#151c25" stroke="#b6a891" stroke-width="1.5" opacity="0.9"/>
  <circle cx="640" cy="52" r="5" fill="#b6a891" filter="url(#glow)"/>
  <text x="640" y="80" text-anchor="middle" font-family="Consolas, monospace" font-size="11" fill="#eceff4" opacity="0.9">Docker</text>
  <circle cx="640" cy="104" r="22" fill="url(#nglow)" opacity="0.5"/>
  <circle cx="640" cy="104" r="14" fill="#151c25" stroke="#b6a891" stroke-width="1.5" opacity="0.9"/>
  <circle cx="640" cy="104" r="5" fill="#b6a891" filter="url(#glow)"/>
  <text x="640" y="132" text-anchor="middle" font-family="Consolas, monospace" font-size="11" fill="#eceff4" opacity="0.9">GH Actions</text>
  <circle cx="640" cy="156" r="22" fill="url(#nglow)" opacity="0.5"/>
  <circle cx="640" cy="156" r="14" fill="#151c25" stroke="#b6a891" stroke-width="1.5" opacity="0.9"/>
  <circle cx="640" cy="156" r="5" fill="#b6a891" filter="url(#glow)"/>
  <text x="640" y="184" text-anchor="middle" font-family="Consolas, monospace" font-size="11" fill="#eceff4" opacity="0.9">Linux</text>
  <circle cx="640" cy="208" r="22" fill="url(#nglow)" opacity="0.5"/>
  <circle cx="640" cy="208" r="14" fill="#151c25" stroke="#b6a891" stroke-width="1.5" opacity="0.9"/>
  <circle cx="640" cy="208" r="5" fill="#b6a891" filter="url(#glow)"/>
  <text x="640" y="236" text-anchor="middle" font-family="Consolas, monospace" font-size="11" fill="#eceff4" opacity="0.9">Vercel</text>
</svg>